<svg height="960" viewBox="0 0 960 960" width="960"
    xmlns="http://www.w3.org/2000/svg">
    <g fill="#000" fill-rule="evenodd">
        <path d="m271.255833 48.3079533 573 14.6940618c58.277949 1.4944848 104.744167 49.1675619 104.744167 107.4646709v610.167227l-.013564 1.723416c-.894132 56.769396-45.885351 103.194176-102.806279 105.674657l-569.781157 24.828063-.544149.055032c-6.146989.582092-13.488315.369356-21.421697-.657584l-1.22992-.165195-1.058921-.152641c-11.021028-1.636123-31.578494-6.086946-62.292417-13.446061l-6.913896-1.664551-85.6547351-17.244103c-50.1848021-10.103456-86.2832649-54.193744-86.2832649-105.385483v-607.745431c0-56.415882 43.610057-103.2349202 99.884567-107.2315371l87.107943-6.1565042c20.261617-1.4213814 35.613167-2.4862727 46.061267-3.1951192l10.469223-.6978232.440399-.0570195c5.373818-.6765229 10.815997-.9485137 16.292434-.8080755zm5.966879 41.3089919h-1.276958c-41.637753.4152792-75.72189 33.8196408-76.665696 75.7550478-.019621.581171-.019621 1.16247-.019621 1.743788v626.404625c0 42.802069 34.697932 77.5 77.5 77.5 1.125807 0 2.251481-.024531 3.376219-.073576l556.621445-24.271762c35.01385-1.526796 63.765744-26.118067 71.850108-58.726387.258792-2.404039.391791-4.844426.391791-7.314768v-610.167227c0-4.146597-.374396-8.207591-1.091558-12.150531-8.179514-28.630689-32.419441-50.539397-62.463461-55.236922-.73504-.040445-1.473285-.071354-2.214574-.090364l-205.061407-5.2598207-359.664775-8.0936466zm-62.624168 2.3826079-.641995.0467392c-24.377155 1.7026347-57.795461 4.0615757-100.238394 7.0757112-35.3350906 2.5094985-62.718155 31.9075045-62.718155 67.3316625v607.745797c0 32.14365 22.6664766 59.828249 54.177864 66.17228l86.032865 17.320569c.252505.050835.504004.106544.754357.167094l8.117725 1.952945c2.2906.547966 4.521625 1.078905 6.692779 1.592772-17.031043-17.554529-27.515153-41.495275-27.515153-67.884717v-626.404625c0-.731335.008229-1.462647.024684-2.193798.662275-29.426362 14.295309-55.513768 35.313423-72.9224299z" fill-rule="nonzero"/>
        <path d="m653.5 552.002924c10.217268-.186506 18.5 8.572334 18.5 19.563418 0 10.991083-8.282732 20.136405-18.5 20.426648s-18.5-8.468597-18.5-19.563418c0-11.09482 8.282732-20.240142 18.5-20.426648zm-79.381423-182.994341c9.533112.264836 17.744529 6.555016 21.458406 15.366584l28.578957 62.405084c.97848 1.630664 1.791631 3.382561 2.414189 5.228815l.587974 1.274377-.168982.085043c.657701 2.351274 1.010879 4.839211 1.010879 7.412431 0 14.315596-10.930977 25.9343-24.41502 25.951103-8.262476.010295-15.566342-4.381534-19.984045-11.123197l-.492379.254572-11.546093-29.261677c-.545671-1.38703-2.028702-2.044862-3.312444-1.468638-.570772.256318-1.032325.730882-1.296699 1.333255l-58.982978 136.358655c-.413368 1.655272-1.081048 3.202151-1.953918 4.585864l-.017559.040558c-2.443503 3.840483-6.467487 6.420434-11.018628 6.543983-4.924854.133695-9.232423-2.654982-11.581758-6.932305l-.489039.980175-67.104281-193.791834c-.138629-.348813-.260771-.707361-.36531-1.074367l-.033819-.09844c-.261895-.975321-.40603-2.007034-.40603-3.073326 0-5.718983 4.146233-10.254762 9.26087-10.130945 3.978051.096301 7.370277 2.971943 8.681486 6.923364l58.253658 158.233534c.52651 1.410012 2.000474 2.067721 3.292193 1.469687.647721-.299743 1.156954-.878881 1.406354-1.599419l56.24895-160.299151.009923.021243c3.429758-9.407758 11.971163-15.892669 21.965143-15.615028zm51.381423 127.991417c12.978692-.0478 23.5 11.039983 23.5 24.765412s-10.521308 25.02203-23.5 25.231664-23.5-10.87815-23.5-24.765257c0-13.887108 10.521308-25.183709 23.5-25.231819zm53 7c8.560414-.051663 15.5 7.486367 15.5 16.836927s-6.939586 17.034016-15.5 17.16148-15.5-7.410566-15.5-16.83666 6.939586-17.109551 15.5-17.161747zm23-57.999448c7.455844.068046 13.5 6.369535 13.5 14.074769s-6.044156 13.939513-13.5 13.924679c-7.455844-.014887-13.5-6.316376-13.5-14.074796s6.044156-13.992699 13.5-13.924652zm22.5-58.997377c6.075132.147966 11 5.400856 11 11.732659 0 6.331802-4.924868 11.374125-11 11.262343s-11-5.364673-11-11.732659 4.924868-11.410309 11-11.262343z"/>
    </g>
</svg>