<?xml version="1.0" encoding="UTF-8" standalone="no"?>
<!DOCTYPE svg PUBLIC "-//W3C//DTD SVG 1.1//EN" "http://www.w3.org/Graphics/SVG/1.1/DTD/svg11.dtd">
<svg width="100%" height="100%" viewBox="0 0 800 800" version="1.1" xmlns="http://www.w3.org/2000/svg" xmlns:xlink="http://www.w3.org/1999/xlink" xml:space="preserve" xmlns:serif="http://www.serif.com/" style="fill-rule:evenodd;clip-rule:evenodd;stroke-linejoin:round;stroke-miterlimit:2;">
    <g id="drop" transform="matrix(0.499525,0,0,0.499525,247.878,247.87)">
        <g id="Page-1">
            <g id="drop1" serif:id="drop">
                <path id="Combined-Shape" d="M565.685,0L612.826,47.14L516.952,143.016C551.561,187.999 572.14,244.338 572.14,305.482C572.14,452.758 452.75,572.149 305.474,572.149C244.329,572.149 187.99,551.57 143.007,516.96L47.14,612.826L-0,565.685L95.632,470.054C60.036,424.729 38.807,367.585 38.807,305.482C38.807,158.206 158.198,38.816 305.474,38.816C367.575,38.816 424.719,60.044 470.044,95.64L565.685,0ZM469.273,190.693L190.685,469.282C223.175,492.093 262.761,505.482 305.474,505.482C415.931,505.482 505.474,415.939 505.474,305.482C505.474,262.769 492.084,223.183 469.273,190.693ZM305.474,105.482C195.017,105.482 105.474,195.025 105.474,305.482C105.474,349.158 119.474,389.563 143.23,422.456L422.446,143.238C389.554,119.482 349.149,105.482 305.474,105.482Z"/>
            </g>
        </g>
    </g>
</svg>
