<?xml version="1.0" encoding="utf-8"?>
<!-- Generator: Adobe Illustrator 19.0.0, SVG Export Plug-In . SVG Version: 6.00 Build 0)  -->
<svg version="1.1" id="layer" xmlns="http://www.w3.org/2000/svg" xmlns:xlink="http://www.w3.org/1999/xlink" x="0px" y="0px"
	 viewBox="-153 -46 652 652" style="enable-background:new -153 -46 652 652;" xml:space="preserve">
<style type="text/css">
	.st0{fill:#23B8CC;}
</style>
<path class="st0" d="M81.3,255.8H60.9v-16.3c0-1.5-1.2-2.8-2.8-2.8h-4c-1.5,0-2.8,1.2-2.8,2.8v16.3h-9.3c-1.5,0-2.8,1.2-2.8,2.8v4
	c0,1.5,1.2,2.8,2.8,2.8h9.3v51.4c0,11.1,9,20.2,20,20.2h0.1c4.4,0,7.8-0.3,10.1-0.6c1.4-0.2,2.4-1.3,2.4-2.7v-3.2
	c0-1.6-1.4-2.9-3-2.7c-2.6,0.3-5.7,0.5-8.3,0.5c-6.5,0-11.8-5.3-11.8-11.8v-51.1h20.3c1.5,0,2.8-1.2,2.8-2.8v-4
	C84,257,82.8,255.8,81.3,255.8L81.3,255.8z"/>
<path class="st0" d="M465.2,254.5c-20.7,0-26.6,17.1-26.6,17.1V258c0-1.3-1.1-2.4-2.4-2.4h-4.7c-1.3,0-2.4,1.1-2.4,2.4v75.5
	c0,1.3,1.1,2.4,2.4,2.4h4.7c1.3,0,2.4-1.1,2.4-2.4v-44.2c0-1.2,0.5-25.4,26.6-25.4h1.2c1.3,0,2.4-1.1,2.4-2.4v-4.6
	c0-1.3-1-2.3-2.3-2.4C466,254.5,465.6,254.5,465.2,254.5z"/>
<path class="st0" d="M278.4,253.8c-12.9,0-24.8,6.1-32.5,16.8l-1.7,2.3v-47.1c0-1.5-1.2-2.8-2.8-2.8h-4c-1.5,0-2.8,1.2-2.8,2.7
	v107.3c0,1.5,1.2,2.7,2.8,2.7h4c1.5,0,2.8-1.2,2.8-2.8V319l1.7,2.3c7.8,10.7,19.6,16.8,32.5,16.8c22.4,0,40.7-18.9,40.7-42.2
	C319.1,272.7,300.8,253.8,278.4,253.8z M277.1,329.4c-15.6,0-29.2-11.1-32.4-26.5c-0.5-2.2-0.7-4.5-0.7-6.8s0.2-4.6,0.7-6.8
	c3.2-15.4,16.8-26.5,32.4-26.5c18.2,0,33.1,15,33.1,33.3C310.2,314.4,295.4,329.4,277.1,329.4z"/>
<path class="st0" d="M179.8,253.8c-12.9,0-24.8,6.1-32.5,16.8l-1.7,2.3v-47.1c0-1.5-1.2-2.8-2.8-2.8c-1.3,0-2.7,0-4,0
	c-1.5,0-2.8,1.2-2.8,2.8v107.3c0,1.5,1.2,2.8,2.8,2.8h4c1.5,0,2.8-1.2,2.8-2.8V319l1.7,2.3c7.8,10.7,19.6,16.8,32.5,16.8
	c22.4,0,40.7-18.9,40.7-42.2C220.5,272.7,202.2,253.8,179.8,253.8L179.8,253.8z M178.5,329.4c-15.6,0-29.2-11.1-32.4-26.5
	c-0.5-2.2-0.7-4.5-0.7-6.8s0.2-4.6,0.7-6.8c3.2-15.4,16.8-26.5,32.4-26.5c18.3,0,33.1,15,33.1,33.3
	C211.6,314.4,196.7,329.4,178.5,329.4L178.5,329.4z"/>
<path class="st0" d="M108.9,224.9c-3.9,0-7.1,3.2-7.1,7.1s3.2,7.1,7.1,7.1c3.9,0,7.1-3.2,7.1-7.1S112.8,224.9,108.9,224.9z"/>
<path class="st0" d="M110.9,255.8h-10.8c-1.5,0-2.8,1.2-2.8,2.8v4c0,1.5,1.2,2.8,2.8,2.8h4v67.9c0,1.5,1.2,2.8,2.8,2.8h4
	c1.5,0,2.8-1.2,2.8-2.8v-74.6C113.6,257,112.4,255.8,110.9,255.8z"/>
<path class="st0" d="M371.6,253.9c-23.6,0-40.7,17.7-40.7,42.2c0,24.4,17.1,42.2,40.7,42.2c18.1,0,29.1-9.3,34.5-15.7
	c0.9-1.1,0.7-2.8-0.6-3.6l-3.7-2.4c-1-0.6-2.3-0.4-3.1,0.5c-3.6,4.2-12.4,12.3-27.2,12.3c-15.9,0-29.8-12-31.9-28.8h70.2
	c1.3,0,2.3-1,2.4-2.2c0-0.8,0.1-1.5,0.1-2.2C412.3,272.4,394.5,253.9,371.6,253.9z M403.1,291.7h-63.3c2.3-17.3,16-29,31.9-29
	c16.8,0,29.1,11,31.3,27.9L403.1,291.7z"/>
<g>
	<path class="st0" d="M-121.2,294.3h70.4c2.4,0,4.5-2,4.5-4.4c0-2.4-2-4.4-4.5-4.4h-70.4c-0.6,0-0.9-0.4-1.1-0.7
		c-0.1-0.3-0.2-0.8,0.2-1.3l75.7-86.8c0.2-0.2,0.6-0.7,1.5-0.3c0.8,0.5,0.6,1.2,0.6,1.4l-11.5,38.9c-0.7,2.4,0.7,4.8,3,5.5
		c2.3,0.7,4.8-0.7,5.5-3l11.5-38.9c1.3-4.6-0.6-9.3-4.8-11.6c-4.2-2.3-9.2-1.4-12.4,2.2l-75.7,86.8c-2.6,3-3.2,7.1-1.6,10.7
		C-128.7,292.1-125.1,294.3-121.2,294.3z"/>
	<path class="st0" d="M-7.2,255.7h-70.4c-2.4,0-4.5,2-4.5,4.4c0,2.4,2,4.4,4.5,4.4h70.4c0.6,0,0.9,0.4,1.1,0.7
		c0.1,0.3,0.2,0.8-0.2,1.3l-75.7,86.8c-0.2,0.2-0.6,0.7-1.5,0.3c-0.8-0.5-0.6-1.2-0.6-1.4l11.5-38.9c0.7-2.4-0.7-4.8-3-5.5
		c-2.3-0.7-4.8,0.7-5.5,3l-11.5,38.9c-1.3,4.6,0.6,9.3,4.8,11.6c4.2,2.3,9.2,1.4,12.4-2.2l75.7-86.8c2.6-3,3.2-7.1,1.6-10.7
		C0.3,257.9-3.2,255.7-7.2,255.7z"/>
</g>
</svg>
