<?xml version="1.0" encoding="UTF-8" standalone="no"?>
<!DOCTYPE svg PUBLIC "-//W3C//DTD SVG 1.1//EN" "http://www.w3.org/Graphics/SVG/1.1/DTD/svg11.dtd">
<svg width="100%" height="100%" viewBox="0 0 652 652" version="1.1" xmlns="http://www.w3.org/2000/svg" xmlns:xlink="http://www.w3.org/1999/xlink" xml:space="preserve" xmlns:serif="http://www.serif.com/" style="fill-rule:evenodd;clip-rule:evenodd;stroke-linejoin:round;stroke-miterlimit:2;">
    <g transform="matrix(1,0,0,1,153,46)">
        <g transform="matrix(3.48316,0,0,3.48316,396.619,-677.87)">
            <path d="M-121.2,294.3L-50.8,294.3C-48.4,294.3 -46.3,292.3 -46.3,289.9C-46.3,287.5 -48.3,285.5 -50.8,285.5L-121.2,285.5C-121.8,285.5 -122.1,285.1 -122.3,284.8C-122.4,284.5 -122.5,284 -122.1,283.5L-46.4,196.7C-46.2,196.5 -45.8,196 -44.9,196.4C-44.1,196.9 -44.3,197.6 -44.3,197.8L-55.8,236.7C-56.5,239.1 -55.1,241.5 -52.8,242.2C-50.5,242.9 -48,241.5 -47.3,239.2L-35.8,200.3C-34.5,195.7 -36.4,191 -40.6,188.7C-44.8,186.4 -49.8,187.3 -53,190.9L-128.7,277.7C-131.3,280.7 -131.9,284.8 -130.3,288.4C-128.7,292.1 -125.1,294.3 -121.2,294.3Z" style="fill:rgb(35,184,204);fill-rule:nonzero;"/>
        </g>
        <g transform="matrix(3.48316,0,0,3.48316,396.619,-677.87)">
            <path d="M-7.2,255.7L-77.6,255.7C-80,255.7 -82.1,257.7 -82.1,260.1C-82.1,262.5 -80.1,264.5 -77.6,264.5L-7.2,264.5C-6.6,264.5 -6.3,264.9 -6.1,265.2C-6,265.5 -5.9,266 -6.3,266.5L-82,353.3C-82.2,353.5 -82.6,354 -83.5,353.6C-84.3,353.1 -84.1,352.4 -84.1,352.2L-72.6,313.3C-71.9,310.9 -73.3,308.5 -75.6,307.8C-77.9,307.1 -80.4,308.5 -81.1,310.8L-92.6,349.7C-93.9,354.3 -92,359 -87.8,361.3C-83.6,363.6 -78.6,362.7 -75.4,359.1L0.3,272.3C2.9,269.3 3.5,265.2 1.9,261.6C0.3,257.9 -3.2,255.7 -7.2,255.7Z" style="fill:rgb(35,184,204);fill-rule:nonzero;"/>
        </g>
    </g>
</svg>
