<svg width="500" height="500" viewBox="0 0 500 500" fill="none" xmlns="http://www.w3.org/2000/svg">
<path d="M292.538 72.8285C293.19 72.074 293.763 71.8718 294.19 71.8099C294.71 71.7346 295.375 71.8301 296.035 72.1871C296.695 72.5442 297.14 73.0486 297.363 73.5252C297.545 73.9168 297.691 74.5072 297.42 75.4677L267.345 181.928C266.088 186.376 268.669 191.002 273.109 192.261C277.549 193.52 282.167 190.935 283.423 186.487L313.498 80.0266C319.191 59.8757 293.595 46.0383 279.908 61.8672L115.501 252.001C102.961 266.502 113.244 289.054 132.394 289.054H281.22C285.835 289.054 289.575 285.306 289.575 280.683C289.575 276.061 285.835 272.313 281.22 272.313H132.394C127.561 272.313 124.966 266.622 128.131 262.962L292.538 72.8285Z" fill="#23B8CC"/>
<path d="M212.462 427.172C211.81 427.926 211.237 428.128 210.81 428.19C210.29 428.265 209.625 428.17 208.965 427.813C208.305 427.456 207.86 426.951 207.637 426.475C207.454 426.083 207.309 425.493 207.58 424.532L237.655 318.072C238.912 313.624 236.331 308.998 231.891 307.739C227.451 306.48 222.833 309.065 221.577 313.513L191.502 419.973C185.809 440.124 211.405 453.962 225.092 438.133L389.499 247.999C402.039 233.498 391.756 210.946 372.606 210.946H217.943C213.329 210.946 209.588 214.694 209.588 219.317C209.588 223.939 213.329 227.687 217.943 227.687H372.606C377.439 227.687 380.034 233.379 376.869 237.038L212.462 427.172Z" fill="#23B8CC"/>
</svg>
