<!DOCTYPE svg PUBLIC "-//W3C//DTD SVG 20010904//EN" "http://www.w3.org/TR/2001/REC-SVG-20010904/DTD/svg10.dtd">
<svg version="1.0" xmlns="http://www.w3.org/2000/svg" width="342px" height="378px" viewBox="0 0 3420 3780" preserveAspectRatio="xMidYMid meet">
<g id="layer101" fill="#45c5dc" stroke="none">
 <path d="M710 3733 c0 -27 7 -181 15 -342 9 -162 12 -297 8 -301 -4 -4 -156 -96 -338 -204 -181 -109 -342 -211 -357 -227 -37 -38 -45 -88 -23 -144 19 -50 -7 -32 428 -294 l237 -143 82 48 c45 27 83 54 84 59 2 6 -119 83 -269 172 -150 90 -289 174 -311 186 l-38 24 333 201 c184 111 342 207 351 214 16 12 17 28 6 231 -6 119 -9 220 -6 222 3 3 88 -44 189 -105 101 -60 190 -110 198 -110 7 0 103 54 211 120 l198 121 336 -203 336 -202 0 -246 0 -246 150 -87 c82 -49 153 -89 157 -90 4 -1 10 105 13 236 l5 237 242 -146 243 -147 -310 -186 c-170 -102 -308 -190 -306 -196 1 -5 39 -32 84 -58 l81 -49 311 187 c170 103 321 200 334 215 37 44 42 93 14 148 -23 45 -36 54 -833 534 -749 451 -813 488 -855 488 -40 0 -67 -13 -229 -111 l-184 -110 -286 172 c-157 95 -289 174 -293 176 -5 2 -8 -18 -8 -44z"/>
 <path d="M983 1881 c-373 -224 -735 -443 -805 -485 -70 -42 -136 -88 -147 -102 -43 -55 -36 -138 17 -186 15 -14 383 -239 819 -501 759 -458 793 -477 840 -477 45 0 66 10 232 109 l182 108 290 -174 c160 -97 293 -173 296 -170 3 3 -3 157 -12 342 -10 185 -16 337 -14 339 2 2 155 95 339 206 184 111 345 211 358 223 49 46 49 149 0 194 -18 17 -899 551 -1507 915 -179 106 -88 141 -888 -341z m1463 -223 c404 -243 734 -445 734 -448 0 -4 -156 -101 -346 -216 l-346 -208 6 -101 c3 -55 9 -158 12 -228 l7 -128 -193 116 c-106 64 -198 115 -204 113 -7 -2 -101 -57 -209 -122 l-197 -119 -733 441 c-402 242 -732 445 -732 451 0 8 1450 891 1464 891 2 0 334 -199 737 -442z"/>
 </g>

</svg>