<?xml version="1.0" encoding="iso-8859-1"?>
<!-- Generator: Adobe Illustrator 16.0.0, SVG Export Plug-In . SVG Version: 6.00 Build 0)  -->
<!DOCTYPE svg PUBLIC "-//W3C//DTD SVG 1.1//EN" "http://www.w3.org/Graphics/SVG/1.1/DTD/svg11.dtd">
<svg version="1.1" id="Capa_1" xmlns="http://www.w3.org/2000/svg" xmlns:xlink="http://www.w3.org/1999/xlink" x="0px" y="0px"
	 width="554.883px" height="554.883px" viewBox="0 0 554.883 554.883" style="enable-background:new 0 0 554.883 554.883;"
	 xml:space="preserve">
<g>
	<g>
		<path d="M277.441,0C124.214,0,0,124.214,0,277.441c0,153.227,124.214,277.442,277.441,277.442
			c153.227,0,277.442-124.215,277.442-277.442C554.883,124.214,430.668,0,277.441,0z M277.441,506.941
			c-126.546,0-229.5-102.955-229.5-229.5c0-126.546,102.954-229.5,229.5-229.5c126.545,0,229.5,102.954,229.5,229.5
			C506.941,403.986,403.986,506.941,277.441,506.941z"/>
		<path d="M277.441,63.241c-118.3,0-214.2,95.9-214.2,214.2c0,118.299,95.9,214.2,214.2,214.2c118.299,0,214.2-95.9,214.2-214.2
			C491.641,159.141,395.74,63.241,277.441,63.241z M279.867,94.86c11.268,0,20.402,9.134,20.402,20.401
			c0,11.267-9.135,20.401-20.402,20.401c-11.267,0-20.397-9.134-20.397-20.401C259.47,103.994,268.601,94.86,279.867,94.86z
			 M117.495,298.035c-11.267,0-20.401-9.135-20.401-20.401c0-11.267,9.134-20.401,20.401-20.401
			c11.267,0,20.401,9.134,20.401,20.401C137.896,288.9,128.762,298.035,117.495,298.035z M277.441,457.98
			c-11.267,0-20.401-9.133-20.401-20.4s9.134-20.4,20.401-20.4c11.266,0,20.401,9.133,20.401,20.4S288.707,457.98,277.441,457.98z
			 M303.738,256.165l-0.043,0.016L261.07,373.721l0.058-101.825L205.95,167.045l97.567,88.917l0.242,0.042l-0.049,0.132
			L303.738,256.165z M439.814,295.607c-11.268,0-20.402-9.133-20.402-20.4c0-11.267,9.135-20.401,20.402-20.401
			c11.266,0,20.4,9.134,20.4,20.401C460.215,286.475,451.08,295.607,439.814,295.607z"/>
	</g>
</g>
<g>
</g>
<g>
</g>
<g>
</g>
<g>
</g>
<g>
</g>
<g>
</g>
<g>
</g>
<g>
</g>
<g>
</g>
<g>
</g>
<g>
</g>
<g>
</g>
<g>
</g>
<g>
</g>
<g>
</g>
</svg>
