<?xml version="1.0" encoding="iso-8859-1"?>
<!-- Uploaded to: SVG Repo, www.svgrepo.com, Generator: SVG Repo Mixer Tools -->
<svg fill="#000000" height="800px" width="800px" version="1.1" id="Layer_1" xmlns="http://www.w3.org/2000/svg" xmlns:xlink="http://www.w3.org/1999/xlink" 
	 viewBox="0 0 512.688 512.688" xml:space="preserve">
<g>
	<g>
		<path d="M241.272,62.274C105.98,62.274,0,108.71,0,167.998c0,59.288,105.98,105.724,241.272,105.724
			c135.304,0,241.284-46.436,241.284-105.724C482.556,108.71,376.572,62.274,241.272,62.274z M241.272,265.722
			C112.648,265.722,8,221.886,8,168.002s104.644-97.724,233.272-97.724c128.636,0,233.284,43.836,233.284,97.72
			C474.556,221.882,369.908,265.722,241.272,265.722z"/>
	</g>
</g>
<g>
	<g>
		<path d="M480.688,168.546c-2.208,0-4,1.788-4,4v39.184c0,53.952-104.976,97.848-234.008,97.844
			c-129.024,0-233.992-43.78-233.992-97.596v-35.432c0-2.212-1.792-4-4-4s-4,1.788-4,4v35.432c0,58.228,108.556,105.6,241.992,105.6
			c133.444,0,242.008-47.484,242.008-105.848v-39.184C484.688,170.334,482.896,168.546,480.688,168.546z"/>
	</g>
</g>
<g>
	<g>
		<path d="M396.932,113.934c-2.052-0.836-4.38,0.164-5.208,2.208c-0.828,2.048,0.16,4.38,2.208,5.208
			c32.604,13.192,50.56,29.756,50.56,46.648c0,38.676-93.064,71.348-203.22,71.348c-110.148,0-203.208-32.668-203.208-71.344
			s93.056-71.348,203.208-71.348c44.676,0,87.12,5.108,122.744,14.772c2.132,0.6,4.332-0.676,4.908-2.812s-0.684-4.328-2.816-4.908
			c-36.296-9.848-79.464-15.056-124.836-15.056c-118.436,0-211.208,34.856-211.208,79.348s92.776,79.348,211.208,79.348
			c118.444,0,211.22-34.856,211.22-79.348C452.492,147.63,432.76,128.43,396.932,113.934z"/>
	</g>
</g>
<g>
	<g>
		<path d="M256.688,268.546c-2.208,0-4,1.788-4,4v40c0,2.212,1.792,4,4,4c2.208,0,4-1.788,4-4v-40
			C260.688,270.334,258.896,268.546,256.688,268.546z"/>
	</g>
</g>
<g>
	<g>
		<path d="M228.688,268.546c-2.208,0-4,1.788-4,4v40c0,2.212,1.792,4,4,4s4-1.788,4-4v-40
			C232.688,270.334,230.896,268.546,228.688,268.546z"/>
	</g>
</g>
<g>
	<g>
		<path d="M200.688,264.546c-2.208,0-4,1.788-4,4v40c0,2.212,1.792,4,4,4s4-1.788,4-4v-40
			C204.688,266.334,202.896,264.546,200.688,264.546z"/>
	</g>
</g>
<g>
	<g>
		<path d="M172.688,264.546c-2.208,0-4,1.788-4,4v40c0,2.212,1.792,4,4,4s4-1.788,4-4v-40
			C176.688,266.334,174.896,264.546,172.688,264.546z"/>
	</g>
</g>
<g>
	<g>
		<path d="M144.688,260.546c-2.208,0-4,1.788-4,4v36c0,2.212,1.792,4,4,4s4-1.788,4-4v-36
			C148.688,262.334,146.896,260.546,144.688,260.546z"/>
	</g>
</g>
<g>
	<g>
		<path d="M116.688,252.546c-2.208,0-4,1.788-4,4v36c0,2.212,1.792,4,4,4s4-1.788,4-4v-36
			C120.688,254.334,118.896,252.546,116.688,252.546z"/>
	</g>
</g>
<g>
	<g>
		<path d="M88.688,244.546c-2.208,0-4,1.788-4,4v36c0,2.212,1.792,4,4,4s4-1.788,4-4v-36
			C92.688,246.334,90.896,244.546,88.688,244.546z"/>
	</g>
</g>
<g>
	<g>
		<path d="M60.688,232.546c-2.208,0-4,1.788-4,4v36c0,2.212,1.792,4,4,4s4-1.788,4-4v-36
			C64.688,234.334,62.896,232.546,60.688,232.546z"/>
	</g>
</g>
<g>
	<g>
		<path d="M32.688,212.546c-2.208,0-4,1.788-4,4v40c0,2.212,1.792,4,4,4s4-1.788,4-4v-40
			C36.688,214.334,34.896,212.546,32.688,212.546z"/>
	</g>
</g>
<g>
	<g>
		<path d="M284.688,264.546c-2.208,0-4,1.788-4,4v40c0,2.212,1.792,4,4,4s4-1.788,4-4v-40
			C288.688,266.334,286.896,264.546,284.688,264.546z"/>
	</g>
</g>
<g>
	<g>
		<path d="M312.688,260.546c-2.208,0-4,1.788-4,4v40c0,2.212,1.792,4,4,4s4-1.788,4-4v-40
			C316.688,262.334,314.896,260.546,312.688,260.546z"/>
	</g>
</g>
<g>
	<g>
		<path d="M340.688,256.546c-2.208,0-4,1.788-4,4v44c0,2.212,1.792,4,4,4s4-1.788,4-4v-44
			C344.688,258.334,342.896,256.546,340.688,256.546z"/>
	</g>
</g>
<g>
	<g>
		<path d="M368.688,252.546c-2.208,0-4,1.788-4,4v40c0,2.212,1.792,4,4,4s4-1.788,4-4v-40
			C372.688,254.334,370.896,252.546,368.688,252.546z"/>
	</g>
</g>
<g>
	<g>
		<path d="M396.688,240.546c-2.208,0-4,1.788-4,4v44c0,2.212,1.792,4,4,4s4-1.788,4-4v-44
			C400.688,242.334,398.896,240.546,396.688,240.546z"/>
	</g>
</g>
<g>
	<g>
		<path d="M424.688,228.546c-2.208,0-4,1.788-4,4v40c0,2.212,1.792,4,4,4s4-1.788,4-4v-40
			C428.688,230.334,426.896,228.546,424.688,228.546z"/>
	</g>
</g>
<g>
	<g>
		<path d="M452.688,212.546c-2.208,0-4,1.788-4,4v40c0,2.212,1.792,4,4,4s4-1.788,4-4v-40
			C456.688,214.334,454.896,212.546,452.688,212.546z"/>
	</g>
</g>
<g>
	<g>
		<path d="M481.46,162.058c-1.712-1.396-4.232-1.136-5.628,0.58c-1.392,1.712-1.136,4.228,0.58,5.624
			c17.084,13.896,25.748,28.784,25.748,44.248c0,53.884-104.648,97.724-233.28,97.724c-8.1,0-16.204-0.176-24.084-0.524
			c-2.152-0.136-4.076,1.612-4.172,3.82s1.612,4.076,3.82,4.172c7.996,0.352,16.216,0.532,24.436,0.532
			c135.3,0,241.28-46.44,241.28-105.724C510.16,194.778,500.236,177.326,481.46,162.058z"/>
	</g>
</g>
<g>
	<g>
		<path d="M508.688,212.546c-2.208,0-4,1.788-4,4v39.948c0,53.444-104.932,96.92-233.916,96.924
			c-125.068,0-229.952-42.876-233.8-95.576c-0.16-2.204-2.104-3.908-4.28-3.696c-2.204,0.16-3.86,2.076-3.7,4.28
			c4.22,57.748,110.424,102.988,241.78,102.988c135.656,0,241.916-46.088,241.916-104.92v-39.948
			C512.688,214.334,510.896,212.546,508.688,212.546z"/>
	</g>
</g>
<g>
	<g>
		<path d="M284.688,308.546c-2.208,0-4,1.788-4,4v44c0,2.212,1.792,4,4,4s4-1.788,4-4v-44
			C288.688,310.334,286.896,308.546,284.688,308.546z"/>
	</g>
</g>
<g>
	<g>
		<path d="M256.688,308.546c-2.208,0-4,1.788-4,4v44c0,2.212,1.792,4,4,4c2.208,0,4-1.788,4-4v-44
			C260.688,310.334,258.896,308.546,256.688,308.546z"/>
	</g>
</g>
<g>
	<g>
		<path d="M228.688,308.546c-2.208,0-4,1.788-4,4v40c0,2.212,1.792,4,4,4s4-1.788,4-4v-40
			C232.688,310.334,230.896,308.546,228.688,308.546z"/>
	</g>
</g>
<g>
	<g>
		<path d="M200.688,308.546c-2.208,0-4,1.788-4,4v40c0,2.212,1.792,4,4,4s4-1.788,4-4v-40
			C204.688,310.334,202.896,308.546,200.688,308.546z"/>
	</g>
</g>
<g>
	<g>
		<path d="M168.688,304.546c-2.208,0-4,1.788-4,4v36c0,2.212,1.792,4,4,4s4-1.788,4-4v-36
			C172.688,306.334,170.896,304.546,168.688,304.546z"/>
	</g>
</g>
<g>
	<g>
		<path d="M140.688,300.546c-2.208,0-4,1.788-4,4v36c0,2.212,1.792,4,4,4s4-1.788,4-4v-36
			C144.688,302.334,142.896,300.546,140.688,300.546z"/>
	</g>
</g>
<g>
	<g>
		<path d="M112.688,292.546c-2.208,0-4,1.788-4,4v32c0,2.212,1.792,4,4,4s4-1.788,4-4v-32
			C116.688,294.334,114.896,292.546,112.688,292.546z"/>
	</g>
</g>
<g>
	<g>
		<path d="M84.688,284.546c-2.208,0-4,1.788-4,4v28c0,2.212,1.792,4,4,4s4-1.788,4-4v-28
			C88.688,286.334,86.896,284.546,84.688,284.546z"/>
	</g>
</g>
<g>
	<g>
		<path d="M60.688,272.546c-2.208,0-4,1.788-4,4v24c0,2.212,1.792,4,4,4s4-1.788,4-4v-24
			C64.688,274.334,62.896,272.546,60.688,272.546z"/>
	</g>
</g>
<g>
	<g>
		<path d="M312.688,308.546c-2.208,0-4,1.788-4,4v40c0,2.212,1.792,4,4,4s4-1.788,4-4v-40
			C316.688,310.334,314.896,308.546,312.688,308.546z"/>
	</g>
</g>
<g>
	<g>
		<path d="M340.688,304.546c-2.208,0-4,1.788-4,4v40c0,2.212,1.792,4,4,4s4-1.788,4-4v-40
			C344.688,306.334,342.896,304.546,340.688,304.546z"/>
	</g>
</g>
<g>
	<g>
		<path d="M368.688,300.546c-2.208,0-4,1.788-4,4v44c0,2.212,1.792,4,4,4s4-1.788,4-4v-44
			C372.688,302.334,370.896,300.546,368.688,300.546z"/>
	</g>
</g>
<g>
	<g>
		<path d="M396.688,292.546c-2.208,0-4,1.788-4,4v44c0,2.212,1.792,4,4,4s4-1.788,4-4v-44
			C400.688,294.334,398.896,292.546,396.688,292.546z"/>
	</g>
</g>
<g>
	<g>
		<path d="M424.688,284.546c-2.208,0-4,1.788-4,4v44c0,2.212,1.792,4,4,4s4-1.788,4-4v-44
			C428.688,286.334,426.896,284.546,424.688,284.546z"/>
	</g>
</g>
<g>
	<g>
		<path d="M452.688,272.546c-2.208,0-4,1.788-4,4v40c0,2.212,1.792,4,4,4s4-1.788,4-4v-40
			C456.688,274.334,454.896,272.546,452.688,272.546z"/>
	</g>
</g>
<g>
	<g>
		<path d="M480.688,256.546c-2.208,0-4,1.788-4,4v40c0,2.212,1.792,4,4,4s4-1.788,4-4v-40
			C484.688,258.334,482.896,256.546,480.688,256.546z"/>
	</g>
</g>
<g>
	<g>
		<path d="M504.992,279.198c-0.952-1.996-3.34-2.836-5.332-1.9c-1.996,0.948-2.844,3.336-1.896,5.328
			c2.916,6.132,4.392,12.424,4.392,18.696c0,53.884-104.648,97.724-233.28,97.724c-8.072,0-16.176-0.176-24.088-0.52
			c-2.076-0.108-4.072,1.612-4.168,3.82c-0.092,2.208,1.616,4.076,3.824,4.172c8.028,0.352,16.248,0.528,24.436,0.528
			c135.3,0,241.28-46.436,241.276-105.724C510.156,293.854,508.416,286.41,504.992,279.198z"/>
	</g>
</g>
<g>
	<g>
		<path d="M508.688,300.546c-2.208,0-4,1.788-4,4v40.76c0,53.544-104.932,97.108-233.916,97.112
			c-125.076,0-229.96-42.796-233.8-95.396c-0.16-2.204-2.06-3.872-4.28-3.696c-2.204,0.16-3.86,2.076-3.7,4.28
			c4.212,57.648,110.416,102.808,241.78,102.808c135.656,0,241.916-46.168,241.916-105.108v-40.76
			C512.688,302.334,510.896,300.546,508.688,300.546z"/>
	</g>
</g>
<g>
	<g>
		<path d="M284.688,396.546c-2.208,0-4,1.788-4,4v44c0,2.212,1.792,4,4,4s4-1.788,4-4v-44
			C288.688,398.334,286.896,396.546,284.688,396.546z"/>
	</g>
</g>
<g>
	<g>
		<path d="M256.688,400.546c-2.208,0-4,1.788-4,4v40c0,2.212,1.792,4,4,4c2.208,0,4-1.788,4-4v-40
			C260.688,402.334,258.896,400.546,256.688,400.546z"/>
	</g>
</g>
<g>
	<g>
		<path d="M228.688,396.546c-2.208,0-4,1.788-4,4v40c0,2.212,1.792,4,4,4s4-1.788,4-4v-40
			C232.688,398.334,230.896,396.546,228.688,396.546z"/>
	</g>
</g>
<g>
	<g>
		<path d="M200.688,396.546c-2.208,0-4,1.788-4,4v40c0,2.212,1.792,4,4,4s4-1.788,4-4v-40
			C204.688,398.334,202.896,396.546,200.688,396.546z"/>
	</g>
</g>
<g>
	<g>
		<path d="M168.688,392.546c-2.208,0-4,1.788-4,4v36c0,2.212,1.792,4,4,4s4-1.788,4-4v-36
			C172.688,394.334,170.896,392.546,168.688,392.546z"/>
	</g>
</g>
<g>
	<g>
		<path d="M140.688,388.546c-2.208,0-4,1.788-4,4v36c0,2.212,1.792,4,4,4s4-1.788,4-4v-36
			C144.688,390.334,142.896,388.546,140.688,388.546z"/>
	</g>
</g>
<g>
	<g>
		<path d="M112.688,384.546c-2.208,0-4,1.788-4,4v28c0,2.212,1.792,4,4,4s4-1.788,4-4v-28
			C116.688,386.334,114.896,384.546,112.688,384.546z"/>
	</g>
</g>
<g>
	<g>
		<path d="M84.688,372.546c-2.208,0-4,1.788-4,4v28c0,2.212,1.792,4,4,4s4-1.788,4-4v-28
			C88.688,374.334,86.896,372.546,84.688,372.546z"/>
	</g>
</g>
<g>
	<g>
		<path d="M60.688,360.546c-2.208,0-4,1.788-4,4v24c0,2.212,1.792,4,4,4s4-1.788,4-4v-24
			C64.688,362.334,62.896,360.546,60.688,360.546z"/>
	</g>
</g>
<g>
	<g>
		<path d="M312.688,396.546c-2.208,0-4,1.788-4,4v40c0,2.212,1.792,4,4,4s4-1.788,4-4v-40
			C316.688,398.334,314.896,396.546,312.688,396.546z"/>
	</g>
</g>
<g>
	<g>
		<path d="M340.688,396.546c-2.208,0-4,1.788-4,4v40c0,2.212,1.792,4,4,4s4-1.788,4-4v-40
			C344.688,398.334,342.896,396.546,340.688,396.546z"/>
	</g>
</g>
<g>
	<g>
		<path d="M368.688,388.546c-2.208,0-4,1.788-4,4v44c0,2.212,1.792,4,4,4s4-1.788,4-4v-44
			C372.688,390.334,370.896,388.546,368.688,388.546z"/>
	</g>
</g>
<g>
	<g>
		<path d="M396.688,384.546c-2.208,0-4,1.788-4,4v40c0,2.212,1.792,4,4,4s4-1.788,4-4v-40
			C400.688,386.334,398.896,384.546,396.688,384.546z"/>
	</g>
</g>
<g>
	<g>
		<path d="M424.688,376.546c-2.208,0-4,1.788-4,4v40c0,2.212,1.792,4,4,4s4-1.788,4-4v-40
			C428.688,378.334,426.896,376.546,424.688,376.546z"/>
	</g>
</g>
<g>
	<g>
		<path d="M452.688,364.546c-2.208,0-4,1.788-4,4v40c0,2.212,1.792,4,4,4s4-1.788,4-4v-40
			C456.688,366.334,454.896,364.546,452.688,364.546z"/>
	</g>
</g>
<g>
	<g>
		<path d="M480.688,344.546c-2.208,0-4,1.788-4,4v40c0,2.212,1.792,4,4,4s4-1.788,4-4v-40
			C484.688,346.334,482.896,344.546,480.688,344.546z"/>
	</g>
</g>
<g>
	<g>
		<path d="M265.46,354.122c-7.88,0.348-15.988,0.524-24.092,0.524c-128.624,0-233.272-43.84-233.272-97.724
			c0-6.908,1.784-13.812,5.308-20.528c1.028-1.96,0.272-4.376-1.684-5.404c-1.952-1.02-4.376-0.268-5.4,1.684
			c-4.132,7.876-6.224,16.032-6.224,24.248c0,59.288,105.98,105.724,241.272,105.724c8.224,0,16.448-0.18,24.444-0.532
			c2.208-0.096,3.916-1.964,3.82-4.172C269.536,355.73,267.632,353.97,265.46,354.122z"/>
	</g>
</g>
<g>
	<g>
		<path d="M228.688,352.546c-2.208,0-4,1.788-4,4v44c0,2.212,1.792,4,4,4s4-1.788,4-4v-44
			C232.688,354.334,230.896,352.546,228.688,352.546z"/>
	</g>
</g>
<g>
	<g>
		<path d="M256.688,356.546c-2.208,0-4,1.788-4,4v40c0,2.212,1.792,4,4,4c2.208,0,4-1.788,4-4v-40
			C260.688,358.334,258.896,356.546,256.688,356.546z"/>
	</g>
</g>
<g>
	<g>
		<path d="M284.688,352.546c-2.208,0-4,1.788-4,4v40c0,2.212,1.792,4,4,4s4-1.788,4-4v-40
			C288.688,354.334,286.896,352.546,284.688,352.546z"/>
	</g>
</g>
<g>
	<g>
		<path d="M312.688,352.546c-2.208,0-4,1.788-4,4v40c0,2.212,1.792,4,4,4s4-1.788,4-4v-40
			C316.688,354.334,314.896,352.546,312.688,352.546z"/>
	</g>
</g>
<g>
	<g>
		<path d="M340.688,348.546c-2.208,0-4,1.788-4,4v36c0,2.212,1.792,4,4,4s4-1.788,4-4v-36
			C344.688,350.334,342.896,348.546,340.688,348.546z"/>
	</g>
</g>
<g>
	<g>
		<path d="M368.688,344.546c-2.208,0-4,1.788-4,4v36c0,2.212,1.792,4,4,4s4-1.788,4-4v-36
			C372.688,346.334,370.896,344.546,368.688,344.546z"/>
	</g>
</g>
<g>
	<g>
		<path d="M396.688,340.546c-2.208,0-4,1.788-4,4v28c0,2.212,1.792,4,4,4s4-1.788,4-4v-28
			C400.688,342.334,398.896,340.546,396.688,340.546z"/>
	</g>
</g>
<g>
	<g>
		<path d="M424.688,328.546c-2.208,0-4,1.788-4,4v28c0,2.212,1.792,4,4,4s4-1.788,4-4v-28
			C428.688,330.334,426.896,328.546,424.688,328.546z"/>
	</g>
</g>
<g>
	<g>
		<path d="M452.688,316.546c-2.208,0-4,1.788-4,4v24c0,2.212,1.792,4,4,4s4-1.788,4-4v-24
			C456.688,318.334,454.896,316.546,452.688,316.546z"/>
	</g>
</g>
<g>
	<g>
		<path d="M200.688,352.546c-2.208,0-4,1.788-4,4v40c0,2.212,1.792,4,4,4s4-1.788,4-4v-40
			C204.688,354.334,202.896,352.546,200.688,352.546z"/>
	</g>
</g>
<g>
	<g>
		<path d="M172.688,352.546c-2.208,0-4,1.788-4,4v40c0,2.212,1.792,4,4,4s4-1.788,4-4v-40
			C176.688,354.334,174.896,352.546,172.688,352.546z"/>
	</g>
</g>
<g>
	<g>
		<path d="M144.688,344.546c-2.208,0-4,1.788-4,4v44c0,2.212,1.792,4,4,4s4-1.788,4-4v-44
			C148.688,346.334,146.896,344.546,144.688,344.546z"/>
	</g>
</g>
<g>
	<g>
		<path d="M116.688,336.546c-2.208,0-4,1.788-4,4v44c0,2.212,1.792,4,4,4s4-1.788,4-4v-44
			C120.688,338.334,118.896,336.546,116.688,336.546z"/>
	</g>
</g>
<g>
	<g>
		<path d="M88.688,332.546c-2.208,0-4,1.788-4,4v40c0,2.212,1.792,4,4,4s4-1.788,4-4v-40
			C92.688,334.334,90.896,332.546,88.688,332.546z"/>
	</g>
</g>
<g>
	<g>
		<path d="M60.688,320.546c-2.208,0-4,1.788-4,4v40c0,2.212,1.792,4,4,4s4-1.788,4-4v-40
			C64.688,322.334,62.896,320.546,60.688,320.546z"/>
	</g>
</g>
<g>
	<g>
		<path d="M32.688,300.546c-2.208,0-4,1.788-4,4v44c0,2.212,1.792,4,4,4s4-1.788,4-4v-44
			C36.688,302.334,34.896,300.546,32.688,300.546z"/>
	</g>
</g>
<g>
	<g>
		<path d="M480.976,296.558c-2.208-0.188-4.116,1.496-4.28,3.696c-3.896,53.324-111.528,98.376-235.032,98.376
			c-128.464,0-232.976-43.836-232.976-97.72v-32.364c0-2.212-1.792-4-4-4s-4,1.788-4,4v32.364
			c0,59.28,105.848,105.72,240.976,105.72c129.736,0,238.752-47.46,243.012-105.792C484.836,298.638,483.18,296.718,480.976,296.558
			z"/>
	</g>
</g>
</svg>
