<svg width="500" height="500" viewBox="0 0 500 500" fill="none" xmlns="http://www.w3.org/2000/svg">
<path d="M293.673 73.8096C293.899 73.5481 294.069 73.4298 294.17 73.3745C294.265 73.3221 294.338 73.3041 294.405 73.2944C294.584 73.2684 294.926 73.2926 295.322 73.5067C295.718 73.7208 295.926 73.9937 296.003 74.1597C296.032 74.2216 296.058 74.2932 296.066 74.4028C296.076 74.5184 296.07 74.7268 295.976 75.0599L265.901 181.52C264.42 186.763 267.461 192.219 272.7 193.704C277.939 195.19 283.385 192.138 284.867 186.894L314.942 80.4344C321.067 58.7528 293.518 43.8336 278.773 60.8861L114.366 251.019C100.99 266.488 111.953 290.554 132.394 290.554H281.22C286.666 290.554 291.075 286.132 291.075 280.683C291.075 275.235 286.666 270.813 281.22 270.813H132.394C128.851 270.813 126.938 266.635 129.265 263.943L293.673 73.8096ZM211.327 426.19C211.101 426.452 210.931 426.57 210.83 426.626C210.735 426.678 210.662 426.696 210.595 426.706C210.416 426.732 210.074 426.707 209.678 426.493C209.282 426.279 209.074 426.006 208.996 425.84C208.968 425.778 208.942 425.707 208.934 425.597C208.924 425.482 208.93 425.273 209.024 424.94L239.099 318.48C240.58 313.237 237.539 307.781 232.3 306.296C227.061 304.81 221.615 307.862 220.133 313.106L190.058 419.566C183.933 441.247 211.482 456.166 226.227 439.114L390.634 248.981C404.01 233.512 393.047 209.446 372.606 209.446H217.943C212.498 209.446 208.088 213.868 208.088 219.317C208.088 224.765 212.498 229.187 217.943 229.187H372.606C376.149 229.187 378.062 233.365 375.735 236.057L211.327 426.19Z" stroke="black" stroke-width="3" stroke-linecap="round"/>
</svg>
