<?xml version="1.0" encoding="utf-8"?>
<!-- Generator: Adobe Illustrator 19.0.0, SVG Export Plug-In . SVG Version: 6.00 Build 0)  -->
<svg version="1.1" id="Layer_1" xmlns="http://www.w3.org/2000/svg" xmlns:xlink="http://www.w3.org/1999/xlink" x="0px" y="0px"
	 viewBox="-281 370 49 54" style="enable-background:new -281 370 49 54;" xml:space="preserve">
<style type="text/css">
	.st0{fill:none;stroke:#000000;stroke-width:0.8;}
</style>
<title>Tibber outline as Appicon</title>
<g id="Page-1">
	<g id="Group-3">
		<g id="Group-2" transform="translate(11.000000, 11.500000)">
			<path id="Stroke-10" class="st0" d="M-266.3,361.7c-0.5-0.3-1.4-0.3-1.9,0l-21,12.8c-0.5,0.3-0.8,1-0.8,1.5
				c0,0.7,0.3,1.2,0.8,1.5l21,12.8c0.3,0.2,0.7,0.3,1,0.3c0.3,0,0.7-0.2,1-0.3l21-12.8c0.5-0.3,0.8-1,0.8-1.5c0-0.7-0.3-1.2-0.8-1.5
				l-9-5.6l0.5-9.3l-2,1.4l-5.7,3.5L-266.3,361.7z M-287.5,376.2l20.1-12.3l5.6,3.4l5.4-3.2l-0.3,6.4l9.5,5.9l-20.1,12.3
				L-287.5,376.2L-287.5,376.2L-287.5,376.2z M-255.9,389.5l8.4,5.2l0,0l-7.6,4.6l0,0v-6.6l0,0l-4.1,2.5l0,0v6.6l0,0l-8.3,5.1l0,0
				l-5.6-3.4l0,0l-5.2,3.2l0,0l0.3-6.3l0,0l-9.5-5.7l0,0l8.4-5.2l-2.2-1.4l-8.1,5.1c-0.5,0.3-0.8,1-0.8,1.5c0,0.7,0.3,1.2,0.8,1.5
				l9,5.6l0,0l-0.5,9.3l0,0l7.8-4.7l0,0l4.6,2.9c0.5,0.3,1.4,0.3,1.9,0l21-12.8c0.5-0.3,1-1,1-1.5c0-0.7-0.3-1.4-0.8-1.7l-8.1-5.1
				L-255.9,389.5L-255.9,389.5L-255.9,389.5z"/>
		</g>
	</g>
</g>
</svg>
