<svg height="960" viewBox="0 0 960 960" width="960"
    xmlns="http://www.w3.org/2000/svg">
    <path d="m581.000352 49.6332266c.55165-.6387463.966608-.9277088 1.213142-1.0627859.231888-.1279936.410076-.1719608.573618-.1956542.436926-.0635083 1.271724-.0043968 2.238332.5185691.966607.5229659 1.474321 1.1895581 1.662272 1.5950338.070787.1511985.134251.3260904.153779.593802.024409.2823674.009763.7914103-.219684 1.6050485l-73.410927 260.0420441c-3.615015 12.806681 3.807849 26.13364 16.595873 29.760937 12.788025 3.62974 26.081322-3.82515 29.698778-16.634273l73.410927-260.0408229c14.950688-52.9600065-52.294453-89.4020094-88.285945-47.7491558l-401.305746 464.4232727c-32.64986 37.784958-5.88996 96.569158 44.005061 96.569158h363.273637c13.293297 0 24.055351-10.801285 24.055351-24.111146 0-13.307418-10.762054-24.108703-24.055351-24.108703h-363.273637c-8.64821 0-13.317707-10.205285-7.637666-16.780831zm-201.000704 860.7329854c-.55165.639967-.966608.928197-1.213142 1.064984-.231888.127016-.410076.170984-.573618.19541-.436926.063508-1.271724.002442-2.238332-.520279-.966607-.522722-1.474321-1.189558-1.664713-1.595034-.068346-.151443-.13181-.324869-.151338-.593558-.024409-.280902-.009763-.79141.219684-1.604804l73.410927-260.0418c3.615015-12.80668-3.807849-26.133639-16.595873-29.760937-12.788025-3.62974-26.081322 3.82515-29.698778 16.634273l-73.410927 260.0418c-14.950688 52.958541 52.294453 89.400055 88.285945 47.748423l401.305746-464.423517c32.64986-37.784958 5.88996-96.569158-44.005061-96.569158h-377.521337c-13.290856 0-24.055351 10.801286-24.055351 24.111146 0 13.307418 10.764495 24.108704 24.055351 24.108704h377.521337c8.64821 0 13.317707 10.205285 7.637666 16.78083z" fill-rule="evenodd"/>
</svg>