<?xml version="1.0" encoding="iso-8859-1"?>
<svg version="1.1" xmlns="http://www.w3.org/2000/svg" xmlns:xlink="http://www.w3.org/1999/xlink" x="0px" y="0px"
         width="511.613px" height="511.613px" viewBox="0 0 511.613 511.613" style="enable-background:new 0 0 511.613 511.613;"
         xml:space="preserve">
<g>
	<g>
		<path d="M255.236,122.648c-67.644,0-131.296,11.316-179.232,31.868C26.992,175.524,0,203.88,0,234.352
			C0,295.948,114.5,346.06,255.24,346.06c140.736,0,255.232-50.112,255.232-111.708S395.972,122.648,255.236,122.648z
			 M255.24,338.06C118.912,338.06,8,291.536,8,234.352c0-57.184,110.912-103.704,247.24-103.704
			c136.324,0,247.236,46.52,247.236,103.704S391.568,338.06,255.24,338.06z"/>
	</g>
</g>
<g>
	<g>
		<path d="M419.96,177.332c-2.052-0.828-4.376,0.164-5.208,2.208c-0.828,2.048,0.16,4.38,2.208,5.208
			c34.616,14.004,53.68,31.62,53.68,49.604c0,41.076-98.644,75.784-215.4,75.784c-116.76,0-215.404-34.708-215.404-75.784
			c0-41.076,98.644-75.78,215.404-75.78c47.296,0,92.256,5.412,130.016,15.652c2.14,0.596,4.328-0.68,4.908-2.812
			c0.576-2.136-0.684-4.328-2.816-4.908c-38.432-10.424-84.112-15.932-132.108-15.932c-125.272,0-223.404,36.8-223.404,83.78
			s98.132,83.784,223.404,83.784c125.268,0,223.396-36.804,223.4-83.784C478.64,212.892,457.8,192.64,419.96,177.332z"/>
	</g>
</g>
<g>
	<g>
		<path d="M508.688,232.664c-2.208,0-4,1.788-4,4v41.672c0,57.184-111.252,103.704-248,103.704s-248-46.52-248-103.704v-29.672
			c0-2.212-1.792-4-4-4s-4,1.788-4,4v29.672c0,61.596,114.84,111.704,256,111.704s256-50.112,256-111.704v-41.672
			C512.688,234.452,510.896,232.664,508.688,232.664z"/>
	</g>
</g>
<g>
	<g>
		<path d="M256.688,340.664c-2.208,0-4,1.788-4,4v40c0,2.212,1.792,4,4,4c2.208,0,4-1.788,4-4v-40
			C260.688,342.452,258.896,340.664,256.688,340.664z"/>
	</g>
</g>
<g>
	<g>
		<path d="M228.688,340.664c-2.208,0-4,1.788-4,4v40c0,2.212,1.792,4,4,4s4-1.788,4-4v-40
			C232.688,342.452,230.896,340.664,228.688,340.664z"/>
	</g>
</g>
<g>
	<g>
		<path d="M200.688,340.664c-2.208,0-4,1.788-4,4v36c0,2.212,1.792,4,4,4s4-1.788,4-4v-36
			C204.688,342.452,202.896,340.664,200.688,340.664z"/>
	</g>
</g>
<g>
	<g>
		<path d="M172.688,336.664c-2.208,0-4,1.788-4,4v36c0,2.212,1.792,4,4,4s4-1.788,4-4v-36
			C176.688,338.452,174.896,336.664,172.688,336.664z"/>
	</g>
</g>
<g>
	<g>
		<path d="M144.688,332.664c-2.208,0-4,1.788-4,4v36c0,2.212,1.792,4,4,4s4-1.788,4-4v-36
			C148.688,334.452,146.896,332.664,144.688,332.664z"/>
	</g>
</g>
<g>
	<g>
		<path d="M116.688,324.664c-2.208,0-4,1.788-4,4v36c0,2.212,1.792,4,4,4s4-1.788,4-4v-36
			C120.688,326.452,118.896,324.664,116.688,324.664z"/>
	</g>
</g>
<g>
	<g>
		<path d="M88.688,316.664c-2.208,0-4,1.788-4,4v36c0,2.212,1.792,4,4,4s4-1.788,4-4v-36
			C92.688,318.452,90.896,316.664,88.688,316.664z"/>
	</g>
</g>
<g>
	<g>
		<path d="M60.688,300.664c-2.208,0-4,1.788-4,4v40c0,2.212,1.792,4,4,4s4-1.788,4-4v-40
			C64.688,302.452,62.896,300.664,60.688,300.664z"/>
	</g>
</g>
<g>
	<g>
		<path d="M32.688,284.664c-2.208,0-4,1.788-4,4v36c0,2.212,1.792,4,4,4s4-1.788,4-4v-36
			C36.688,286.452,34.896,284.664,32.688,284.664z"/>
	</g>
</g>
<g>
	<g>
		<path d="M284.688,340.664c-2.208,0-4,1.788-4,4v40c0,2.212,1.792,4,4,4s4-1.788,4-4v-40
			C288.688,342.452,286.896,340.664,284.688,340.664z"/>
	</g>
</g>
<g>
	<g>
		<path d="M312.688,340.664c-2.208,0-4,1.788-4,4v36c0,2.212,1.792,4,4,4s4-1.788,4-4v-36
			C316.688,342.452,314.896,340.664,312.688,340.664z"/>
	</g>
</g>
<g>
	<g>
		<path d="M340.688,336.664c-2.208,0-4,1.788-4,4v36c0,2.212,1.792,4,4,4s4-1.788,4-4v-36
			C344.688,338.452,342.896,336.664,340.688,336.664z"/>
	</g>
</g>
<g>
	<g>
		<path d="M368.688,328.664c-2.208,0-4,1.788-4,4v40c0,2.212,1.792,4,4,4s4-1.788,4-4v-40
			C372.688,330.452,370.896,328.664,368.688,328.664z"/>
	</g>
</g>
<g>
	<g>
		<path d="M396.688,324.664c-2.208,0-4,1.788-4,4v36c0,2.212,1.792,4,4,4s4-1.788,4-4v-36
			C400.688,326.452,398.896,324.664,396.688,324.664z"/>
	</g>
</g>
<g>
	<g>
		<path d="M424.688,312.664c-2.208,0-4,1.788-4,4v40c0,2.212,1.792,4,4,4s4-1.788,4-4v-40
			C428.688,314.452,426.896,312.664,424.688,312.664z"/>
	</g>
</g>
<g>
	<g>
		<path d="M452.688,300.664c-2.208,0-4,1.788-4,4v40c0,2.212,1.792,4,4,4s4-1.788,4-4v-40
			C456.688,302.452,454.896,300.664,452.688,300.664z"/>
	</g>
</g>
<g>
	<g>
		<path d="M480.688,280.664c-2.208,0-4,1.788-4,4v40c0,2.212,1.792,4,4,4s4-1.788,4-4v-40
			C484.688,282.452,482.896,280.664,480.688,280.664z"/>
	</g>
</g>
</svg>
