<?xml version="1.0" encoding="UTF-8"?>
<svg width="103px" height="228px" viewBox="0 0 103 228" version="1.1" xmlns="http://www.w3.org/2000/svg" xmlns:xlink="http://www.w3.org/1999/xlink">
    <title>Tibber Pulse Outline</title>
    <defs></defs>
    <g id="Page-1" stroke="none" stroke-width="1" fill="none" fill-rule="evenodd" stroke-linecap="round" stroke-linejoin="round">
        <g id="Pulse-Outline" transform="translate(0.000000, 1.000000)" stroke="#000000" stroke-width="1.2">
            <path d="M74.14,3.53 L95.61,5.983" id="Shape"></path>
            <path d="M73.75,3.491 L74.14,3.53" id="Shape"></path>
            <path d="M38.33,0.322 L73.75,3.491" id="Shape"></path>
            <path d="M26.34,9.739 L26.56,183.866" id="Shape"></path>
            <path d="M34.28,0.136 L37.43,0.27" id="Shape"></path>
            <path d="M53.95,224.885 L53.02,224.664" id="Shape"></path>
            <path d="M95.75,6.001 C100.17,6.665 101.51,12.661 101.48,16.112" id="Shape"></path>
            <path d="M101.48,16.12 L100.72,176.649" id="Shape"></path>
            <path d="M100.72,176.659 C100.65,189.163 96.52,202.037 88.47,211.828 C80.5,221.527 68.21,228.256 55.04,225.14" id="Shape"></path>
            <path d="M37.82,0.287 C37.97,0.293 38.11,0.303 38.25,0.315" id="Shape"></path>
            <path d="M74.45,176.251 C74.34,176.232 74.23,176.225 74.12,176.225" id="Shape"></path>
            <path d="M74.02,176.227 C73.94,176.23 73.86,176.237 73.78,176.248" id="Shape"></path>
            <path d="M73.72,176.258 C73.41,176.314 73.11,176.397 72.81,176.51" id="Shape"></path>
            <path d="M72.8,176.516 C70.7,177.357 69.52,179.608 70.03,181.813" id="Shape"></path>
            <path d="M70.04,181.857 C70.3,183.038 71.23,184.371 72.54,184.611" id="Shape"></path>
            <path d="M74.66,179.685 C74.66,178.353 74.62,177.27 73.45,176.313" id="Shape"></path>
            <path d="M26.56,183.866 C26.59,200.433 34.6,220.321 53.02,224.664" id="Shape"></path>
            <path d="M74.61,180.517 C74.64,180.24 74.66,179.964 74.66,179.685" id="Shape"></path>
            <path d="M71.68,184.286 C73.38,184.001 74.33,182.289 74.57,180.792" id="Shape"></path>
            <path d="M74.57,180.792 C74.58,180.7 74.6,180.609 74.61,180.517" id="Shape"></path>
            <path d="M34.28,0.136 C29,-0.092 26.34,5.196 26.34,9.739" id="Shape"></path>
            <path d="M74.41,175.63 C74.28,175.635 74.15,175.648 74.03,175.669" id="Shape"></path>
            <path d="M76.4,180 C76.4,178.859 76.07,176.768 74.67,176.305" id="Shape"></path>
            <path d="M69.65,182.058 C69.82,182.032 69.93,181.963 70.03,181.822" id="Shape"></path>
            <path d="M72.54,184.612 C74.7,184.997 76.06,182.877 76.32,181.043" id="Shape"></path>
            <path d="M77.36,181.209 C77.02,181.132 76.67,181.077 76.32,181.043" id="Shape"></path>
            <path d="M77.36,181.209 C76.61,186.399 70.87,187.305 69.65,182.065" id="Shape"></path>
            <path d="M72.83,175.973 C73.22,175.839 73.62,175.738 74.03,175.669" id="Shape"></path>
            <path d="M74.02,176.227 C74.41,176.212 74.4,175.931 74.41,175.63" id="Shape"></path>
            <path d="M74.03,175.669 C74.04,175.946 74.07,176.2 73.72,176.258" id="Shape"></path>
            <path d="M74.45,176.251 C74.53,176.264 74.6,176.281 74.67,176.305" id="Shape"></path>
            <path d="M30.16,184.33 L69.64,182.058" id="Shape"></path>
            <path d="M38.64,1.547 C33.72,1.063 29.97,5.024 29.99,9.815" id="Shape"></path>
            <path d="M69.65,182.058 C69.04,179.527 70.43,176.928 72.83,175.973" id="Shape"></path>
            <path d="M28.39,9.868 L26.34,9.739" id="Shape"></path>
            <path d="M28.59,184.265 L26.56,183.866" id="Shape"></path>
            <path d="M74.41,175.63 C74.74,175.609 75.05,175.635 75.37,175.711" id="Shape"></path>
            <path d="M74.47,4.721 C74.06,4.682 73.66,4.647 73.26,4.615" id="Shape"></path>
            <path d="M74.85,4.759 C74.85,4.329 74.71,3.586 74.14,3.53" id="Shape"></path>
            <path d="M73.75,3.491 C74.32,3.547 74.47,4.292 74.47,4.721" id="Shape"></path>
            <path d="M75.82,4.866 C75.5,4.825 75.18,4.791 74.85,4.759" id="Shape"></path>
            <path d="M96.53,7.189 C96.52,6.507 96.38,6.069 95.61,5.983" id="Shape"></path>
            <path d="M75.82,4.866 L96.53,7.189" id="Shape"></path>
            <path d="M101.48,16.12 C101.42,16.04 101.37,16.017 101.27,16.036" id="Shape"></path>
            <path d="M30.16,184.33 C30.18,189.945 31.01,195.566 32.8,200.892 C34.52,206.014 37.12,210.861 40.7,214.908 C43.75,218.366 47.53,221.238 51.78,223.009 C56.03,224.775 60.75,225.443 65.32,224.95 C70.04,224.44 74.61,222.688 78.64,220.158 C83.24,217.275 87.15,213.383 90.32,208.98 C93.55,204.497 96.01,199.485 97.71,194.231 C99.53,188.593 100.47,182.676 100.51,176.752" id="Shape"></path>
            <path d="M55.04,225.14 C36.6,220.781 28.61,200.843 28.59,184.265" id="Shape"></path>
            <path d="M100.51,176.752 C100.61,176.769 100.67,176.741 100.72,176.649" id="Shape"></path>
            <path d="M28.39,9.868 L28.59,184.265" id="Shape"></path>
            <path d="M29.99,9.815 C29.46,9.786 28.93,9.803 28.39,9.868" id="Shape"></path>
            <path d="M30.16,184.33 L29.99,9.815" id="Shape"></path>
            <path d="M28.59,184.265 C29.11,184.344 29.63,184.365 30.16,184.33" id="Shape"></path>
            <path d="M28.39,9.868 C28.44,4.606 32.33,0.055 37.82,0.287" id="Shape"></path>
            <path d="M38.64,1.547 L73.26,4.615" id="Shape"></path>
            <path d="M38.25,0.316 C38.79,0.319 38.65,1.232 38.64,1.547" id="Shape"></path>
            <path d="M74.41,175.63 L74.85,4.759" id="Shape"></path>
            <path d="M100.51,176.752 L77.36,181.209" id="Shape"></path>
            <path d="M101.27,16.036 L100.51,176.752" id="Shape"></path>
            <path d="M96.53,7.189 C98.39,7.398 99.64,9.303 100.27,10.76 C101,12.482 101.28,14.179 101.27,16.036" id="Shape"></path>
            <path d="M75.37,175.711 C77.45,176.389 77.61,179.568 77.36,181.209" id="Shape"></path>
            <path d="M74.47,4.721 L74.03,175.669" id="Shape"></path>
            <path d="M74.85,4.759 L74.47,4.721" id="Shape"></path>
            <path d="M76.32,181.043 C76.37,180.696 76.4,180.35 76.4,180" id="Shape"></path>
            <path d="M0.79,92.33 C0.78,91.265 0.98,90.301 1.39,89.321" id="Shape"></path>
            <path d="M1.97,88.284 L4.19,85.147" id="Shape"></path>
            <path d="M24.8,213.147 C21.42,211.755 18.03,210.349 14.65,208.93" id="Shape"></path>
            <path d="M4.23,85.089 C10.66,75.99 12.85,61.422 12.8,50.958" id="Shape"></path>
            <path d="M15.88,13.579 L28.7,2.061" id="Shape"></path>
            <path d="M12.8,50.928 L12.73,21.108" id="Shape"></path>
            <path d="M26.09,144.386 L25.38,144.324" id="Shape"></path>
            <path d="M25.38,144.324 C25.36,144.322 25.34,144.322 25.32,144.323" id="Shape"></path>
            <path d="M13.72,208.218 C4.99,200.662 1.12,188.905 1.08,177.878" id="Shape"></path>
            <path d="M48,223 L46.4,222.399" id="Shape"></path>
            <path d="M12.73,21.054 C12.71,18.398 13.43,16.384 15.13,14.343" id="Shape"></path>
            <path d="M1.08,177.844 L0.79,92.331" id="Shape"></path>
            <path d="M26.3,150.479 C25.92,150.508 25.84,150.715 25.85,151.056" id="Shape"></path>
            <path d="M25.85,151.056 L25.89,183.702" id="Shape"></path>
            <path d="M25.89,183.702 C25.91,198.686 32.35,216.27 47.67,222.841" id="Shape"></path>
            <path d="M26.51,144.386 L26.29,144.4" id="Shape"></path>
            <path d="M32.4,0.317 C27.64,0.819 25.65,6.001 25.66,10.029" id="Shape"></path>
            <path d="M25.66,10.029 L25.84,143.882" id="Shape"></path>
            <path d="M26.29,144.4 C25.92,144.423 25.82,144.219 25.84,143.882" id="Shape"></path>
            <path d="M26.52,150.463 L26.3,150.479" id="Shape"></path>
            <path d="M13.48,20.816 C13.29,20.848 12.64,20.75 12.73,21.108" id="Shape"></path>
            <path d="M12.8,50.958 C12.7,50.728 13.03,50.86 13.16,50.842 C13.29,50.823 13.42,50.809 13.55,50.797" id="Shape"></path>
            <path d="M13.55,50.797 C13.57,62.464 11.13,78.019 3.96,88.113" id="Shape"></path>
            <path d="M15.88,13.578 C15.61,13.819 15.37,14.077 15.15,14.359" id="Shape"></path>
            <path d="M47.09,222.649 C47.28,222.717 47.47,222.782 47.67,222.846" id="Shape"></path>
            <path d="M35.6,217.518 C39.27,218.998 42.68,221.001 46.4,222.396" id="Shape"></path>
            <path d="M24.97,143.806 C23.95,143.717 23.76,144.385 23.48,145.143 C23.21,145.839 23.14,146.523 23.16,147.257 C23.19,148.302 23.57,150.593 24.98,150.879" id="Shape"></path>
            <path d="M1.24,177.938 L25.89,183.702" id="Shape"></path>
            <path d="M0.96,92.334 L1.24,177.938" id="Shape"></path>
            <path d="M13.48,20.816 L13.55,50.797" id="Shape"></path>
            <path d="M1.24,177.938 C1.16,177.945 1.11,177.92 1.08,177.844" id="Shape"></path>
            <path d="M14.46,208.812 C5.3,201.305 1.28,189.19 1.24,177.938" id="Shape"></path>
            <path d="M14.46,208.812 C21.49,211.769 28.53,214.67 35.6,217.518" id="Shape"></path>
            <path d="M14.88,208.987 C14.84,208.983 14.79,208.975 14.75,208.964" id="Shape"></path>
            <path d="M14.65,208.931 C14.58,208.901 14.52,208.862 14.46,208.812" id="Shape"></path>
            <path d="M24.98,150.879 L25.85,151.056" id="Shape"></path>
            <path d="M24.98,150.879 C24.98,150.534 25.08,150.339 25.45,150.307" id="Shape"></path>
            <path d="M25.45,150.307 L26.3,150.479" id="Shape"></path>
            <path d="M25.45,150.307 C23.47,149.9 23.26,144.471 25.32,144.324" id="Shape"></path>
            <path d="M24.97,143.806 C24.97,144.146 25.07,144.342 25.44,144.325" id="Shape"></path>
            <path d="M25.84,143.882 L24.97,143.806" id="Shape"></path>
            <path d="M3.96,88.113 L0.96,92.334" id="Shape"></path>
            <path d="M26.52,150.233 L25.45,150.307" id="Shape"></path>
            <path d="M3.96,88.113 C3.56,86.994 3.48,86.123 4.23,85.089" id="Shape"></path>
            <path d="M1.41,89.329 C1.03,90.318 0.88,91.275 0.96,92.334" id="Shape"></path>
            <path d="M0.96,92.334 C0.91,92.333 0.86,92.333 0.8,92.331" id="Shape"></path>
            <path d="M25.66,10.029 L13.48,20.816" id="Shape"></path>
        </g>
    </g>
</svg>