<svg height="960" viewBox="0 0 960 960" width="960"
    xmlns="http://www.w3.org/2000/svg">
    <g fill="none" fill-rule="evenodd">
        <path d="m357.611262 24.8029904c23.153915-20.75210617 34.976572-25.25750457 62.228432-23.50454601 13.44473.86482372 82.88153 7.4484743 209.488454 19.85501961l20.465837 2.0073331c.277082.0272005.557497.0537728.847648.0803478l1.39301.1217356 4.083678.3365443c4.702548.393621 7.415969.6591906 11.813349 1.181042l3.000841.3630024c13.408386 1.6454759 23.520208 10.9441267 29.956404 24.0260819 5.109414 10.385191 7.85635 23.2335015 7.85635 36.3810452v.9338059c-.000093.0482309-.000191.0974157-.000294.1475626l-.00068.3124897c-.007809 3.4037102-.036643 10.6896156-.096943 23.8724525l-2.614381 525.026467c-.25289 51.666759-.393503 82.00401-.442154 95.498937l-.025359 9.784837c-.103059 21.482071-1.64342 37.307057-7.105139 58.006616-7.913799 29.992776-22.827154 60.573923-46.525759 92.08983-25.479562 33.884335-57.811262 54.939433-93.530601 63.412715-30.04754 7.127827-61.156461 4.819972-86.498892-5.016713-16.415316-6.371618-40.723099-16.01299-66.459078-26.352761l-6.987967-2.8106c-29.854448-12.020864-56.566259-22.942061-73.087174-29.900484l-5.119862-2.168778c-40.13246-17.114434-71.505717-82.968563-71.505717-144.334215v-346.82753c0-8.317279 2.015346-15.575333 5.88008-22.833206.722309-1.356477 2.11347-3.610575 3.690261-6.080034l1.418237-2.20369 1.242369-1.908252 5.223052-7.925026c-.041597.084537 1.304187-1.937147 2.827065-4.289988l1.462365-2.279699c.826436-1.30195 1.591347-2.534959 2.097724-3.410085l.348133-.606452c3.011759-5.288442 5.883704-11.429134 8.650493-18.923397 10.365407-28.076263 16.660514-67.765973 16.660514-122.356289l-.000261-96.114981-.028523-2.520333c-.05903-4.916312.029571-7.9008398.529581-11.6103197l.128036-.9055545c.948384-6.4211264 2.982151-12.4871144 6.437131-18.263366 2.970325-4.9659774 6.878878-9.496745 11.736651-13.5669076 4.053521-3.3963081 7.680182-6.5775883 11.850552-10.3718457l15.277292-14.0912229 2.588025-2.3774661c3.146118-2.8875512 6.208979-5.6884556 8.671479-7.9206202zm59.15489 16.3810018c-8.508941-.5274344-12.405313-.2486127-15.362461.8207645l-.343788.1294555c-.266162.1042269-.538412.2195038-.818098.3469697-.218055.1853232-.445759.3629771-.682982.5320262l-.242595.1676315c-7.629632 5.1106239-11.931741 14.290217-12.621557 28.5589712l-.01991.4297101v690.5109391c0 40.729944 12.008965 79.186413 34.527624 107.398814l.685599.851778c9.698991 11.949269 21.135217 21.882568 34.247855 29.607195 7.106664 2.819723 13.759135 5.445504 19.757692 7.798475l10.485472 4.093398c17.856628 6.931064 40.704061 8.62603 62.792432 3.386264 26.66676-6.325845 50.943388-22.135306 70.793176-48.532812 20.608631-27.406662 33.233681-53.295438 39.819384-78.254819 4.615384-17.492006 5.787121-30.631458 5.787121-50.212317l.002148-1.667597c.008262-3.946368.040537-12.24434.099816-25.554465l3.016202-610.128619.055983-15.8151587c0-7.2500899-1.457733-14.0683785-3.747689-18.7228526-.469564-.954416-.923425-1.7134517-1.31146-2.2630506l-.006851-.0081743-2.033128-.2380931c-2.790972-.3191361-4.934428-.5258326-8.146626-.7980189l-5.969771-.4976316c-.56594-.050234-1.104223-.1003771-1.643671-.1533333l-59.737804-5.8475921-3.709057 672.3993482.09264.069045c8.584201 6.435028 11.683184 19.148339 8.014487 31.148105-3.758177 12.292443-13.822754 21.234354-24.847916 21.36559l-.394155.000932c-1.972728-.014164-3.974057-.311353-5.973548-.922658-13.329937-4.075371-18.920878-19.770423-14.446858-34.404284 2.907262-9.509226 9.588468-17.01339 17.568848-19.984797l3.705071-671.6189849c-88.442605-8.6044431-138.295328-13.276976-148.885751-13.9581983zm-50.043216 29.4917207-.20925.1944604c-4.547288 4.1912877-8.361999 7.7202943-9.547995 8.8193818l-2.180392 1.9898026c-4.144062 3.751328-7.897689 7.031427-12.047823 10.5086837-1.488677 1.2473119-2.461369 2.3748493-3.098027 3.439255-1.121964 1.8757687-1.460774 3.7883484-1.430692 9.0995836l.033566 2.993269.003235 96.788961c0 59.086067-7.032611 103.42563-19.136129 136.209826-3.67318 9.949361-7.634728 18.336182-11.901249 25.709624-1.560158 2.696279-3.047085 5.068061-4.691878 7.546807-.209691.316009-1.831372 2.725139-2.225159 3.325918l-.602011.947282c-.251769.391609-.549495.849627-.881715 1.357681l-4.097511 6.218183c-2.180791 3.30945-4.256705 6.488793-4.778066 7.467895l-.157579.300576c-.803797 1.559622-1.028996 2.446302-1.028996 3.732326v346.82753c0 23.443908 5.927171 48.704369 16.046349 69.945058 9.343451 19.612399 21.187375 33.346532 31.150129 37.595136 13.11439 5.592614 36.100322 15.041497 62.925779 25.893803l4.142601 1.670317c-23.845451-31.580733-36.335362-73.060365-36.335362-116.576612l-.000533-120.292972c-8.739484-4.116419-13.255714-13.168654-12.799512-25.244646l.020378-.466252c.522996-10.527988 5.183113-17.994186 12.778914-20.626347l.000753-524.0819836c0-.1348281.002727-.2696425.008179-.4043603.012025-.2971475.025357-.5932106.039996-.8881862zm203.341038 674.7615181-.082672.00558c-.059404.006292-.127865.017913-.208258.035965-.451356.101354-1.020019.369975-1.645508.831006-1.716344 1.265071-3.262956 3.520223-4.117582 6.31558-.854627 2.795356-.833492 5.529817-.117997 7.538376.260749.731981.581981 1.27267.899495 1.609091.169663.179766.282664.251481.386698.283287.052017.015904.111472.024789.18807.022929l.082672-.005581c.059404-.006292.127864-.017912.208258-.035965.451355-.101354 1.020018-.369974 1.645507-.831005 1.716345-1.265072 3.262957-3.520224 4.117583-6.31558.854626-2.795357.833492-5.529817.117997-7.538376-.260749-.731981-.581981-1.27267-.899496-1.609091-.169662-.179766-.282664-.251481-.386698-.283288-.052017-.015903-.111471-.024788-.188069-.022928z" fill="#000" fill-rule="nonzero"/>
        <path d="m562.254433 771.619164c7.32782 2.240339 15.713013-3.940161 18.728855-13.804533 3.015841-9.864372-.479708-19.67718-7.807528-21.917519-7.327819-2.240339-15.713013 3.940161-18.728854 13.804533s.479708 19.67718 7.807527 21.917519z" fill="#000"/>
        <path d="m403.543887 29.3583691 173.907947 23.5693649 102.092053 4.1110529" stroke="#000" stroke-linecap="round" stroke-linejoin="round" stroke-width="20"/>
    </g>
</svg>